<?xml version="1.0" encoding="UTF-8"?>
<!DOCTYPE svg PUBLIC "-//W3C//DTD SVG 1.1//EN" "http://www.w3.org/Graphics/SVG/1.1/DTD/svg11.dtd">
<!-- Creator: CorelDRAW 2018 (64 Bit Versão de avaliação) -->
<svg xmlns="http://www.w3.org/2000/svg" xml:space="preserve" width="500px" height="408px" version="1.1" style="shape-rendering:geometricPrecision; text-rendering:geometricPrecision; image-rendering:optimizeQuality; fill-rule:evenodd; clip-rule:evenodd"
viewBox="0 0 500 408.11"
 xmlns:xlink="http://www.w3.org/1999/xlink">
 <defs>
  <style type="text/css">
   <![CDATA[
    .fil5 {fill:none}
    .fil4 {fill:#373435}
    .fil2 {fill:#8B775F}
    .fil0 {fill:#AEDCD9}
    .fil1 {fill:#DBB493}
    .fil3 {fill:#E7E7E7}
    .fil7 {fill:#FEF79F}
    .fil6 {fill:#FF6668}
   ]]>
  </style>
 </defs>
 <g id="Camada_x0020_1">
  <metadata id="CorelCorpID_0Corel-Layer"/>
  <rect class="fil0" width="500" height="408.11"/>
  <rect class="fil1" x="48.3" y="193.45" width="404.51" height="164.18"/>
  <path class="fil2" d="M54.21 224.51c33.8,3.85 51.32,-27.03 76.7,-27.03 25.38,0 41.86,26.85 65.6,27.03 39.57,-1.14 42.92,-26.04 66.6,-26.04 23.68,0 26.41,24.84 65.6,26.04 39.2,-0.12 46.71,-28.35 68.57,-26.7 15.27,-0.66 34.67,22.81 51.74,26.7 11.2,1.16 12.42,-7.29 12.96,-12.96l0 -66.41c0,-11.38 -9.31,-20.69 -20.68,-20.69l-380.86 0c-11.38,0 -20.69,9.31 -20.69,20.69l0 64.92c0,7.95 6.51,14.45 14.46,14.45z"/>
  <path class="fil3" d="M455.28 397.75c-140.88,0 -269.68,0 -410.56,0 -4.16,-0.11 -11.12,-2.25 -9.89,-10.17 0.7,-14.61 -8.41,-17.59 -13.89,-19.8 -12.89,-6.14 -8.21,-17.63 -2.51,-18.16 158.35,0 304.79,0 463.14,0 5.7,0.53 10.38,12.02 -2.51,18.16 -5.48,2.21 -14.59,5.19 -13.89,19.8 1.23,7.92 -5.73,10.06 -9.89,10.17z"/>
  <g id="_2425171434896">
   <path class="fil4" d="M98.46 96.67c0.97,-5.89 3.58,-10.95 8.6,-14.31 0.65,-0.43 1.53,-0.26 1.96,0.39 0.44,0.65 0.26,1.54 -0.39,1.97 -4.36,2.91 -6.54,7.31 -7.38,12.41 -0.12,0.77 -0.86,1.29 -1.63,1.17 -0.77,-0.13 -1.29,-0.86 -1.16,-1.63z"/>
  </g>
  <path class="fil5" d="M99.85 96.9c1,-6.06 3.7,-10.49 8,-13.36"/>
  <circle class="fil6" cx="99.85" cy="110.78" r="13.89"/>
  <g id="_2425171432496">
   <path class="fil4" d="M151.12 96.45c0.97,-5.89 3.58,-10.95 8.6,-14.3 0.65,-0.44 1.53,-0.26 1.97,0.39 0.43,0.64 0.26,1.53 -0.39,1.96 -4.36,2.92 -6.54,7.31 -7.38,12.41 -0.13,0.77 -0.86,1.29 -1.63,1.17 -0.77,-0.13 -1.3,-0.86 -1.17,-1.63z"/>
  </g>
  <path class="fil5" d="M152.52 96.68c1,-6.06 3.69,-10.48 7.99,-13.36"/>
  <circle class="fil6" cx="152.52" cy="110.57" r="13.89"/>
  <g id="_2425171432208">
   <path class="fil4" d="M203.17 96.45c0.97,-5.89 3.58,-10.95 8.6,-14.3 0.65,-0.44 1.53,-0.26 1.96,0.39 0.44,0.64 0.26,1.53 -0.39,1.96 -4.36,2.92 -6.54,7.31 -7.38,12.41 -0.12,0.77 -0.86,1.29 -1.63,1.17 -0.77,-0.13 -1.29,-0.86 -1.16,-1.63z"/>
  </g>
  <path class="fil5" d="M204.56 96.68c1,-6.06 3.7,-10.48 8,-13.36"/>
  <circle class="fil6" cx="204.56" cy="110.57" r="13.89"/>
  <g id="_2425171430000">
   <path class="fil4" d="M296.17 96.45c0.98,-5.89 3.59,-10.95 8.61,-14.3 0.65,-0.44 1.53,-0.26 1.96,0.39 0.44,0.64 0.26,1.53 -0.39,1.96 -4.36,2.92 -6.54,7.31 -7.38,12.41 -0.13,0.77 -0.86,1.29 -1.63,1.17 -0.77,-0.13 -1.29,-0.86 -1.17,-1.63z"/>
  </g>
  <path class="fil5" d="M297.57 96.68c1,-6.06 3.7,-10.48 7.99,-13.36"/>
  <circle class="fil6" cx="297.57" cy="110.57" r="13.89"/>
  <g id="_2425171431216">
   <path class="fil4" d="M348.84 96.23c0.97,-5.88 3.58,-10.95 8.6,-14.3 0.65,-0.44 1.53,-0.26 1.97,0.39 0.43,0.65 0.25,1.53 -0.39,1.96 -4.36,2.92 -6.54,7.31 -7.39,12.41 -0.12,0.77 -0.85,1.3 -1.63,1.17 -0.77,-0.13 -1.29,-0.86 -1.16,-1.63z"/>
  </g>
  <path class="fil5" d="M350.24 96.46c1,-6.06 3.69,-10.48 7.99,-13.35"/>
  <circle class="fil6" cx="350.24" cy="110.35" r="13.89"/>
  <g id="_2425171428752">
   <path class="fil4" d="M400.88 96.23c0.98,-5.88 3.59,-10.95 8.61,-14.3 0.65,-0.44 1.53,-0.26 1.96,0.39 0.44,0.65 0.26,1.53 -0.39,1.96 -4.36,2.92 -6.54,7.31 -7.38,12.41 -0.13,0.77 -0.86,1.3 -1.63,1.17 -0.77,-0.13 -1.29,-0.86 -1.17,-1.63z"/>
  </g>
  <path class="fil5" d="M402.28 96.46c1,-6.06 3.7,-10.48 7.99,-13.35"/>
  <circle class="fil6" cx="402.28" cy="110.35" r="13.89"/>
  <path class="fil6" d="M240.21 65.17l19.29 0 0 4.37 -19.29 18.88 0 -23.25zm19.29 8.52l0 12.4 -19.29 18.88 0 -12.4 19.29 -18.88zm0 16.55l0 10.45 -19.29 18.88 0 -10.45 19.29 -18.88zm0 14.6l0 19.61 -19.29 0 0 -0.72 19.29 -18.89z"/>
  <path class="fil7" d="M247.87 10.36c7.97,5.85 13.46,14.78 14.84,28.76 0.17,12.89 -5.88,19.53 -13.11,20.03 -6.75,-1.02 -11.78,-5.43 -12.94,-15.49 -0.88,-12.59 13.41,-14.21 11.21,-33.3z"/>
 </g>
</svg>
